<svg width="19" height="17" viewBox="0 0 19 17" fill="none" xmlns="http://www.w3.org/2000/svg">
<path d="M3.42969 15.5714V2.27743C3.4296 1.99489 3.52336 1.72033 3.69625 1.49687C3.86913 1.2734 4.11134 1.11369 4.38484 1.04281C4.65834 0.971936 4.94764 0.993911 5.20729 1.10529C5.46695 1.21666 5.68226 1.41113 5.8194 1.65814L13.1828 14.9133C13.32 15.1603 13.5353 15.3548 13.7949 15.4661C14.0546 15.5775 14.3439 15.5995 14.6174 15.5286C14.8909 15.4577 15.1331 15.298 15.306 15.0746C15.4789 14.8511 15.5726 14.5765 15.5725 14.294V1" stroke="#252335" stroke-width="2" stroke-linecap="round" stroke-linejoin="round"/>
<path d="M1 5.85706H18" stroke="#252335" stroke-width="2" stroke-linecap="round" stroke-linejoin="round"/>
<path d="M1 10.7144H18" stroke="#252335" stroke-width="2" stroke-linecap="round" stroke-linejoin="round"/>
</svg>
