<svg width="36" height="32" viewBox="0 0 36 32" fill="none" xmlns="http://www.w3.org/2000/svg">
<path d="M7.33398 29V5.27933C7.33383 4.7752 7.50113 4.2853 7.80961 3.88657C8.11809 3.48784 8.55027 3.20286 9.03828 3.07639C9.52629 2.94993 10.0425 2.98914 10.5058 3.18786C10.9691 3.38659 11.3533 3.73358 11.598 4.17433L24.7366 27.8257C24.9814 28.2664 25.3655 28.6134 25.8288 28.8121C26.2922 29.0109 26.8083 29.0501 27.2964 28.9236C27.7844 28.7971 28.2165 28.5122 28.525 28.1134C28.8335 27.7147 29.0008 27.2248 29.0006 26.7207V3" stroke="#252335" stroke-width="5" stroke-linecap="round" stroke-linejoin="round"/>
<path d="M3 11.6667H33.3333" stroke="#252335" stroke-width="5" stroke-linecap="round" stroke-linejoin="round"/>
<path d="M3 20.3333H33.3333" stroke="#252335" stroke-width="5" stroke-linecap="round" stroke-linejoin="round"/>
</svg>
