<svg width="129" height="25" viewBox="0 0 129 25" fill="none" xmlns="http://www.w3.org/2000/svg">
<path d="M12.5 0L15.3064 8.63729H24.3882L17.0409 13.9754L19.8473 22.6127L12.5 17.2746L5.15268 22.6127L7.95911 13.9754L0.611794 8.63729H9.69357L12.5 0Z" fill="#EFBA32"/>
<path d="M38.5 0L41.3064 8.63729H50.3882L43.0409 13.9754L45.8473 22.6127L38.5 17.2746L31.1527 22.6127L33.9591 13.9754L26.6118 8.63729H35.6936L38.5 0Z" fill="#EFBA32"/>
<path d="M64.5 0L67.3064 8.63729H76.3882L69.0409 13.9754L71.8473 22.6127L64.5 17.2746L57.1527 22.6127L59.9591 13.9754L52.6118 8.63729H61.6936L64.5 0Z" fill="#EFBA32"/>
<path d="M90.5 0L93.3064 8.63729H102.388L95.0409 13.9754L97.8473 22.6127L90.5 17.2746L83.1527 22.6127L85.9591 13.9754L78.6118 8.63729H87.6936L90.5 0Z" fill="#EFBA32"/>
<path d="M116.5 0L119.306 8.63729H128.388L121.041 13.9754L123.847 22.6127L116.5 17.2746L109.153 22.6127L111.959 13.9754L104.612 8.63729H113.694L116.5 0Z" fill="#E7EBEE"/>
</svg>
