<svg width="16" height="14" viewBox="0 0 16 14" fill="none" xmlns="http://www.w3.org/2000/svg">
<path d="M14.2137 1H1.78651C1.35205 1 1 1.52499 1 2.17284V11.8272C1 12.4748 1.35226 13 1.78651 13H14.2137C14.6479 13 15 12.475 15 11.8272V2.17284C15.0002 1.52522 14.6479 1 14.2137 1ZM8.40295 8.56681C8.18102 8.81367 7.81918 8.81344 7.60603 8.57747L1.90951 1.68004H14.0909L8.40295 8.56681ZM5.67075 7.2396L1.61191 11.6526V2.32517L5.67075 7.2396ZM6.0846 7.74079L7.16423 9.04805C7.39349 9.30262 7.69414 9.43069 7.99643 9.43069C8.30178 9.43069 8.60855 9.30012 8.84454 9.03763L9.91539 7.74079L14.1311 12.3202L1.87259 12.3209L6.0846 7.74079ZM10.3297 7.2396L14.3883 2.3254V11.6483L10.3297 7.2396Z" fill="#252335" stroke="#252335"/>
</svg>
